<svg xmlns="http://www.w3.org/2000/svg" data-name="Layer 1" viewBox="0 0 90 45.824999999999996" x="0px" y="0px"><title>22</title><path d="M93.48,54.46a18.7,18.7,0,0,0-1.65-1.75,30.66,30.66,0,0,1-4.24-4.9h0l-.06-.07c-.86-1.83-4.92-7.89-9.33-10.23L77,36.89a41.85,41.85,0,0,0-5.27-2.57l-1.38-.57c-2.73-1.14-3.38-1.08-5-.95-.66.06-1.48.13-2.73.13a9.16,9.16,0,0,1-4-.73A5.44,5.44,0,0,0,56,31.69a13.7,13.7,0,0,0-3.35.78,5.65,5.65,0,0,1-2.82.49c-1.93-.58-6.1,1-7.4,1.58-1.7.77-7.84,3.77-8.1,3.89A.58.58,0,0,0,34,39H32.94a9,9,0,0,0-1,.42l3.07.86A11.81,11.81,0,0,1,30.84,40c-.21.13-.44.28-.66.44l0,.06a9.35,9.35,0,0,0,2.56.82c.82,0-3,1-3.73.08C27.48,42.93,27,43,26.89,43a12.74,12.74,0,0,0,3.56-.39c1.48-.47,7.93-1.71,9.95.47l1,2.06c-.62-.93-2.62-1-3.06-1l0,0,2.41,1.61a4.13,4.13,0,0,0-1.4-.23,9.33,9.33,0,0,1-2.4-.63l-.1.05a3.1,3.1,0,0,0,1.33,1,4,4,0,0,1,1.63,2A2.08,2.08,0,0,0,38.26,47a8.62,8.62,0,0,1-2.76-1.33l0,0c1.55,1.5,1.86,3.49,1.52,2.94a13.36,13.36,0,0,0-1-1.4l-1.67-.7-.22.19,1.31,1.68L33.24,47.3a7,7,0,0,1-2.87.82s4.12,1.87,6,4.82A33,33,0,0,1,33,52.63a48.75,48.75,0,0,0-5.2-.88l.31,2.36-.58-1.17c-.58-1.17-3-1.4-3-1.4l-.62,1.32a8.85,8.85,0,0,1,3.65,1.94c1.4,1.4,3,4.66,2.49,5.6a5.07,5.07,0,0,1-3.89,2c-1.24-.16-1.87,2.49-1.87,2.49s1.24-1.55,2.18-1.55h.93s-1.4.93-1.71,1.71l-.31.78a15.64,15.64,0,0,1,2.49-1.4,1.65,1.65,0,0,0,1.24,1.71s-.31-1.55.47-1.87S33,62.42,33,60.56s-2.8-7.62-2.8-7.62l3,4s12.28,3.73,19.43.16,5.75-8.55,5.75-8.55,1.71,4.82-3.42,8.55a5.34,5.34,0,0,0,.93,4,13.94,13.94,0,0,1,2,3.26s-.78,1.4-1.87,1.24-2,1.4-1.55,2c0,0,.78-.93,1.4-.93a8.88,8.88,0,0,0,2.33-.93s-2.64,1.4-1.55,2.49c0,0,2.33-1.71,3-1.71l-.47.93s3.42-1.24,1.87-3.73a14.81,14.81,0,0,1-1.87-5.6l0-.05c.61.17,13.25,3.59,22.66,3.59,9.63,0,12.67-1.08,12.79-1.12A.58.58,0,0,0,95,60C94.95,59.59,94.48,55.79,93.48,54.46ZM55.56,42.84c-4.28-1.17-16.41-3.15-20-3.73,1.73-.84,6-2.91,7.32-3.52,1.9-.86,5.34-1.9,6.59-1.53a6.24,6.24,0,0,0,3.51-.5,12.63,12.63,0,0,1,3.07-.72,4.32,4.32,0,0,1,2.21.43,10.28,10.28,0,0,0,4.43.82c1.3,0,2.15-.07,2.83-.13,1.45-.12,1.94-.16,4.4.86l1.38.57a41.12,41.12,0,0,1,5.17,2.52l1.17.62c4.48,2.37,8.31,8.61,8.88,9.74a.58.58,0,0,0,.07.17h0A31.59,31.59,0,0,0,91,53.53a18.73,18.73,0,0,1,1.54,1.63A11.63,11.63,0,0,1,93.68,59c-2.17-2-7.41-6.13-16.67-9.52C64.26,44.86,63.48,45,55.56,42.84Zm4.92,14.48a13.33,13.33,0,0,1,1.92-.64c3-.78,3.42.31,9.33-.31,5.49-.58,15.29,1.13,21.76,3.37a56.78,56.78,0,0,1-11.66.86C73.94,60.6,63.71,58.14,60.48,57.31Z" transform="translate(-5 -31.67)" fill="#9370DB"/><path d="M17.32,56.2c-1.39.35-1.4,2.49-1.09,1.87s2.64-.93,2.64-.93a1.94,1.94,0,0,0-.62,2.49s.16-.62,1.4-1.24a4,4,0,0,0,2.18-2,4.49,4.49,0,0,0,.62-2,7.29,7.29,0,0,0-3-.62S19.81,55.58,17.32,56.2Z" fill="#9370DB" transform="translate(-5 -31.67)" /><path d="M33.8,51.7a24.92,24.92,0,0,0-9.48-4l.16-1.09a30.32,30.32,0,0,0,4.51.31c2.64,0,4.51-2.18,8.86-3.73,0,0-2-.16-7.62,1.09-1.8.4-4.45.46-5.29-.15-1.15-.83-.15-1.1-.15-1.1a54.45,54.45,0,0,0,4.66-3.58c1.71-1.55,5.91-2.49,5.91-2.49s-3.26-1.24-7.31,1.4c0,0-2.49,1.87-4,1.55,0,0,1.4-1.09,2.33-1.87a58.25,58.25,0,0,1,5.75-3.11s-4.51.62-7.77,1.4S16.54,38,13.28,39a17.4,17.4,0,0,0-5.91,3.26s-2,1.09-2.33,2S6.28,47.34,8.15,48s5.28,3.73,9.48,3.89a46.68,46.68,0,0,1,5,.31l1.09-2a29.8,29.8,0,0,0,4.66.47A22.14,22.14,0,0,1,33.8,51.7ZM13.12,45.17a1.24,1.24,0,1,1,1.24-1.24A1.24,1.24,0,0,1,13.12,45.17Z" transform="translate(-5 -31.67)" fill="#9370DB"/><text x="0" y="51.66" fill="#9370DB" font-size="5px" font-weight="bold" font-family="'Helvetica Neue', Helvetica, Arial-Unicode, Arial, Sans-serif">Created by parkjisun</text><text x="0" y="56.66" fill="#9370DB" font-size="5px" font-weight="bold" font-family="'Helvetica Neue', Helvetica, Arial-Unicode, Arial, Sans-serif">from the Noun Project</text></svg>