<svg xmlns="http://www.w3.org/2000/svg" data-name="Layer 1" viewBox="0 0 100 125" x="0px" y="0px"><path d="M63.17,54.58a10.19,10.19,0,0,0,6.38-5.83,1.13,1.13,0,0,1,.79-.68c6.54-1.45,9.64-4.51,14.54-4.36,3.32.11,5.19.21,5.19.21a9.8,9.8,0,0,1-1.76-.9c-3.11-1.72-5-1.72-9.85-.9a13.91,13.91,0,0,1-6.4-.26A.46.46,0,0,1,72,41a16,16,0,0,0,7.18-6.49c1.23-2.41,3.56-5.79,5.11-6.95,1.31-1,3.27-2.2,3.27-2.2-1.5.7-3.14.89-5.39,2.16a23.2,23.2,0,0,0-5.85,5.28,11.85,11.85,0,0,1-6.79,3.84,3.23,3.23,0,0,1-1.83-.26,1.6,1.6,0,0,1-.85-1.61c.06-.5.13-1.23.17-2.13.17-3.81,1.27-5.84,2.62-8.8s.93-7.19.93-7.19c-1,3-2.79,5.66-5.5,9.47a18.92,18.92,0,0,0-2.91,6.74.56.56,0,0,1-.77.4,31.3,31.3,0,0,0-22.8,0,.56.56,0,0,1-.77-.4,18.92,18.92,0,0,0-2.91-6.74c-2.71-3.81-4.49-6.51-5.5-9.47,0,0-.42,4.23.93,7.19s2.45,5,2.62,8.8c0,.9.11,1.63.17,2.13a1.6,1.6,0,0,1-.85,1.61,3.23,3.23,0,0,1-1.83.26,11.85,11.85,0,0,1-6.79-3.84,23.2,23.2,0,0,0-5.85-5.28c-2.25-1.27-3.89-1.46-5.39-2.16,0,0,2.43,1.5,3.27,2.2a27.71,27.71,0,0,1,5.11,7A16,16,0,0,0,28,41a.46.46,0,0,1,0,.86,13.91,13.91,0,0,1-6.4.26c-4.82-.82-6.74-.82-9.85.9a9.8,9.8,0,0,1-1.76.9s1.87-.1,5.19-.21c4.9-.15,8,2.91,14.54,4.36a1.13,1.13,0,0,1,.79.68,10.19,10.19,0,0,0,6.38,5.83c1,.37,1.29.54.62,1.34a42.75,42.75,0,0,1-4.18,4.38c-3.05,2.72-4,2.87-3.71,8.14,0,0,.48,4.65-.25,5.6s-2.95,2.71-3.75,4.32S25,80.5,25,80.5a13.81,13.81,0,0,1,2.83-2.87l1.49-1A6.35,6.35,0,0,1,28.49,79a7.47,7.47,0,0,0-.64,3.35A20.78,20.78,0,0,1,30,79.46c.89-.85,1.28-1.43,2.32-1.34l1.25,2.62s1-3.89,1.9-4.63a5.17,5.17,0,0,1,1.75.17,18.58,18.58,0,0,0,2.61.39L37.36,74.8A10.94,10.94,0,0,1,36,72.27a17.79,17.79,0,0,1-1.48-5.84c0-1.53.57-1.44,2.22-3.36,1.12-1.29,3.35-2.78,4-3.61A.91.91,0,0,1,42,59.29a12.67,12.67,0,0,0,8,2.61,12.67,12.67,0,0,0,8-2.61.91.91,0,0,1,1.21.17c.69.83,2.92,2.32,4,3.61C65,65,65.56,64.9,65.52,66.43A17.79,17.79,0,0,1,64,72.27a10.94,10.94,0,0,1-1.4,2.53l-2.48,1.87a18.58,18.58,0,0,0,2.61-.39,5.17,5.17,0,0,1,1.75-.17c.87.74,1.9,4.63,1.9,4.63l1.25-2.62c1-.09,1.43.49,2.32,1.34a20.78,20.78,0,0,1,2.16,2.89A7.47,7.47,0,0,0,71.51,79a6.35,6.35,0,0,1-.82-2.37l1.49,1A13.81,13.81,0,0,1,75,80.5s.22-.52-.57-2.14S71.42,75,70.69,74s-.25-5.6-.25-5.6c.24-5.27-.66-5.42-3.71-8.14a42.75,42.75,0,0,1-4.18-4.38C61.88,55.12,62.18,55,63.17,54.58ZM41.24,46.81a.88.88,0,1,1,.1-1.33A1,1,0,0,1,41.24,46.81Zm14,3.18a11.16,11.16,0,0,1-2.5,1.17,10.17,10.17,0,0,1-5.58,0A11.16,11.16,0,0,1,44.71,50a.39.39,0,0,1,.16-.72h0a14,14,0,0,1,2.66,0l2.46,0,2.46,0a14,14,0,0,1,2.66,0h0a.39.39,0,0,1,.33.44A.38.38,0,0,1,55.29,50Zm4.81-3.07a1,1,0,1,1-.1-1.34A1,1,0,0,1,60.1,46.92Z"/><text x="0" y="115" fill="#000000" font-size="5px" font-weight="bold" font-family="'Helvetica Neue', Helvetica, Arial-Unicode, Arial, Sans-serif">Created by Pelin Kahraman</text><text x="0" y="120" fill="#000000" font-size="5px" font-weight="bold" font-family="'Helvetica Neue', Helvetica, Arial-Unicode, Arial, Sans-serif">from the Noun Project</text></svg>